<svg width="1024" height="1024" viewBox="0 0 1024 1024" fill="none" xmlns="http://www.w3.org/2000/svg">
<rect width="1024" height="1024" fill="url(#paint0_linear)"/>
<path d="M232.776 69H791.224C881.65 69 955 142.35 955 232.776V791.224C955 881.65 881.65 955 791.224 955H232.776C142.35 955 69 881.65 69 791.224V232.776C69 142.35 142.35 69 232.776 69Z" stroke="white" stroke-width="10"/>
<g opacity="0.4">
<path d="M954.88 69.1204H69.1196V954.88H954.88V69.1204Z" stroke="white" stroke-width="5"/>
<path d="M202.24 69.1204H69.1196V202.24H202.24V69.1204Z" stroke="white" stroke-width="5"/>
<path d="M202.24 821.76H69.1196V954.88H202.24V821.76Z" stroke="white" stroke-width="5"/>
<path d="M954.88 69.1204H821.76V202.24H954.88V69.1204Z" stroke="white" stroke-width="5"/>
<path d="M954.88 821.76H821.76V954.88H954.88V821.76Z" stroke="white" stroke-width="5"/>
<path d="M821.76 202.24H202.24V821.76H821.76V202.24Z" stroke="white" stroke-width="5"/>
<path d="M704 320H320V704H704V320Z" stroke="white" stroke-width="5"/>
<path d="M512 703.893C618.039 703.893 704 617.932 704 511.893C704 405.855 618.039 319.893 512 319.893C405.961 319.893 320 405.855 320 511.893C320 617.932 405.961 703.893 512 703.893Z" stroke="white" stroke-width="5"/>
<path d="M512 783.36C661.868 783.36 783.36 661.868 783.36 512C783.36 362.132 661.868 240.64 512 240.64C362.132 240.64 240.64 362.132 240.64 512C240.64 661.868 362.132 783.36 512 783.36Z" stroke="white" stroke-width="5"/>
<path d="M512 949.76C753.768 949.76 949.76 753.768 949.76 512C949.76 270.232 753.768 74.24 512 74.24C270.232 74.24 74.2402 270.232 74.2402 512C74.2402 753.768 270.232 949.76 512 949.76Z" stroke="white" stroke-width="5"/>
<path d="M320 0V1024" stroke="white" stroke-width="5"/>
<path d="M512 0V1024" stroke="white" stroke-width="5"/>
<path d="M704 0V1024" stroke="white" stroke-width="5"/>
<path d="M0 704H1024" stroke="white" stroke-width="5"/>
<path d="M0 512H1024" stroke="white" stroke-width="5"/>
<path d="M0 320H1024" stroke="white" stroke-width="5"/>
<path d="M69.1196 69.1204L954.88 954.88" stroke="white" stroke-width="5"/>
<path d="M69.1196 954.88L954.88 69.1204" stroke="white" stroke-width="5"/>
</g>
<g filter="url(#filter0_d)">
<path d="M663.014 701.576H719.068V745.118H633.485L491.681 532.579H416.108V701.576H490.013V745.118H304V701.576H367.895V327.047L304 319.207V278C328.19 283.505 349.21 287.342 375.569 287.342C415.274 287.342 455.813 278 495.518 278C572.593 278 644.162 313.034 644.162 398.617C644.162 464.847 604.457 506.888 542.898 524.739L663.014 701.576ZM416.108 490.539L456.648 491.373C555.577 492.874 593.613 454.838 593.613 404.122C593.613 344.898 550.739 321.542 496.353 321.542C470.661 321.542 444.136 323.878 416.108 327.047V490.539Z" fill="white"/>
</g>
<path d="M579.117 180.965V199H568.57V147.812H588.539C592.383 147.812 595.758 148.516 598.664 149.922C601.594 151.328 603.844 153.332 605.414 155.934C606.984 158.512 607.77 161.453 607.77 164.758C607.77 169.773 606.047 173.734 602.602 176.641C599.18 179.523 594.434 180.965 588.363 180.965H579.117ZM579.117 172.422H588.539C591.328 172.422 593.449 171.766 594.902 170.453C596.379 169.141 597.117 167.266 597.117 164.828C597.117 162.32 596.379 160.293 594.902 158.746C593.426 157.199 591.387 156.402 588.785 156.355H579.117V172.422ZM635.754 170.488C634.371 170.301 633.152 170.207 632.098 170.207C628.254 170.207 625.734 171.508 624.539 174.109V199H614.379V160.961H623.977L624.258 165.496C626.297 162.004 629.121 160.258 632.73 160.258C633.855 160.258 634.91 160.41 635.895 160.715L635.754 170.488ZM657.48 199.703C651.902 199.703 647.355 197.992 643.84 194.57C640.348 191.148 638.602 186.59 638.602 180.895V179.91C638.602 176.09 639.34 172.68 640.816 169.68C642.293 166.656 644.379 164.336 647.074 162.719C649.793 161.078 652.887 160.258 656.355 160.258C661.559 160.258 665.648 161.898 668.625 165.18C671.625 168.461 673.125 173.113 673.125 179.137V183.285H648.902C649.23 185.77 650.215 187.762 651.855 189.262C653.52 190.762 655.617 191.512 658.148 191.512C662.062 191.512 665.121 190.094 667.324 187.258L672.316 192.848C670.793 195.004 668.73 196.691 666.129 197.91C663.527 199.105 660.645 199.703 657.48 199.703ZM656.32 168.484C654.305 168.484 652.664 169.164 651.398 170.523C650.156 171.883 649.359 173.828 649.008 176.359H663.141V175.551C663.094 173.301 662.484 171.566 661.312 170.348C660.141 169.105 658.477 168.484 656.32 168.484ZM692.672 186.59L699.738 160.961H710.355L697.523 199H687.82L674.988 160.961H685.605L692.672 186.59ZM725.578 199H715.383V160.961H725.578V199ZM714.785 151.117C714.785 149.594 715.289 148.34 716.297 147.355C717.328 146.371 718.723 145.879 720.48 145.879C722.215 145.879 723.598 146.371 724.629 147.355C725.66 148.34 726.176 149.594 726.176 151.117C726.176 152.664 725.648 153.93 724.594 154.914C723.562 155.898 722.191 156.391 720.48 156.391C718.77 156.391 717.387 155.898 716.332 154.914C715.301 153.93 714.785 152.664 714.785 151.117ZM751.488 199.703C745.91 199.703 741.363 197.992 737.848 194.57C734.355 191.148 732.609 186.59 732.609 180.895V179.91C732.609 176.09 733.348 172.68 734.824 169.68C736.301 166.656 738.387 164.336 741.082 162.719C743.801 161.078 746.895 160.258 750.363 160.258C755.566 160.258 759.656 161.898 762.633 165.18C765.633 168.461 767.133 173.113 767.133 179.137V183.285H742.91C743.238 185.77 744.223 187.762 745.863 189.262C747.527 190.762 749.625 191.512 752.156 191.512C756.07 191.512 759.129 190.094 761.332 187.258L766.324 192.848C764.801 195.004 762.738 196.691 760.137 197.91C757.535 199.105 754.652 199.703 751.488 199.703ZM750.328 168.484C748.312 168.484 746.672 169.164 745.406 170.523C744.164 171.883 743.367 173.828 743.016 176.359H757.148V175.551C757.102 173.301 756.492 171.566 755.32 170.348C754.148 169.105 752.484 168.484 750.328 168.484ZM806.016 185.184L811.008 160.961H820.816L811.113 199H802.605L795.398 175.059L788.191 199H779.719L770.016 160.961H779.824L784.781 185.148L791.742 160.961H799.09L806.016 185.184Z" fill="white"/>
<defs>
<filter id="filter0_d" x="304" y="278" width="435.068" height="487.118" filterUnits="userSpaceOnUse" color-interpolation-filters="sRGB">
<feFlood flood-opacity="0" result="BackgroundImageFix"/>
<feColorMatrix in="SourceAlpha" type="matrix" values="0 0 0 0 0 0 0 0 0 0 0 0 0 0 0 0 0 0 127 0"/>
<feOffset dx="15" dy="15"/>
<feGaussianBlur stdDeviation="2.5"/>
<feColorMatrix type="matrix" values="0 0 0 0 0 0 0 0 0 0 0 0 0 0 0 0 0 0 0.25 0"/>
<feBlend mode="normal" in2="BackgroundImageFix" result="effect1_dropShadow"/>
<feBlend mode="normal" in="SourceGraphic" in2="effect1_dropShadow" result="shape"/>
</filter>
<linearGradient id="paint0_linear" x1="512" y1="0" x2="512" y2="1024" gradientUnits="userSpaceOnUse">
<stop stop-color="#75AADB"/>
<stop offset="1" stop-color="#63A4E1"/>
</linearGradient>
</defs>
</svg>
