<svg width="1024" height="1024" viewBox="0 0 1024 1024" fill="none" xmlns="http://www.w3.org/2000/svg">
<rect width="1024" height="1024" rx="512" fill="#4D4D4D"/>
<g filter="url(#filter0_d)">
<path d="M663.014 701.576H719.068V745.118H633.485L491.681 532.579H416.108V701.576H490.013V745.118H304V701.576H367.895V327.047L304 319.207V278C328.19 283.505 349.21 287.342 375.569 287.342C415.274 287.342 455.813 278 495.518 278C572.593 278 644.162 313.034 644.162 398.617C644.162 464.847 604.457 506.888 542.898 524.739L663.014 701.576ZM416.108 490.539L456.648 491.373C555.577 492.874 593.613 454.838 593.613 404.122C593.613 344.898 550.739 321.542 496.353 321.542C470.661 321.542 444.136 323.878 416.108 327.047V490.539Z" fill="white"/>
</g>
<defs>
<filter id="filter0_d" x="304" y="278" width="435.068" height="487.118" filterUnits="userSpaceOnUse" color-interpolation-filters="sRGB">
<feFlood flood-opacity="0" result="BackgroundImageFix"/>
<feColorMatrix in="SourceAlpha" type="matrix" values="0 0 0 0 0 0 0 0 0 0 0 0 0 0 0 0 0 0 127 0"/>
<feOffset dx="15" dy="15"/>
<feGaussianBlur stdDeviation="2.5"/>
<feColorMatrix type="matrix" values="0 0 0 0 0 0 0 0 0 0 0 0 0 0 0 0 0 0 0.25 0"/>
<feBlend mode="normal" in2="BackgroundImageFix" result="effect1_dropShadow"/>
<feBlend mode="normal" in="SourceGraphic" in2="effect1_dropShadow" result="shape"/>
</filter>
</defs>
</svg>
