<svg width="1024" height="1024" viewBox="0 0 1024 1024" fill="none" xmlns="http://www.w3.org/2000/svg">
<rect width="1024" height="1024" rx="512" fill="url(#paint0_linear)"/>
<g opacity="0.4">
<path d="M954.88 69.1206H69.1196V954.881H954.88V69.1206Z" stroke="white" stroke-width="5"/>
<path d="M202.24 69.1206H69.1196V202.241H202.24V69.1206Z" stroke="white" stroke-width="5"/>
<path d="M202.24 821.76H69.1196V954.88H202.24V821.76Z" stroke="white" stroke-width="5"/>
<path d="M954.88 69.1206H821.76V202.241H954.88V69.1206Z" stroke="white" stroke-width="5"/>
<path d="M954.88 821.76H821.76V954.88H954.88V821.76Z" stroke="white" stroke-width="5"/>
<path d="M821.76 202.24H202.24V821.76H821.76V202.24Z" stroke="white" stroke-width="5"/>
<path d="M704 320H320V704H704V320Z" stroke="white" stroke-width="5"/>
<path d="M512 703.893C618.039 703.893 704 617.932 704 511.893C704 405.854 618.039 319.893 512 319.893C405.961 319.893 320 405.854 320 511.893C320 617.932 405.961 703.893 512 703.893Z" stroke="white" stroke-width="5"/>
<path d="M512 783.36C661.868 783.36 783.36 661.868 783.36 512C783.36 362.132 661.868 240.64 512 240.64C362.132 240.64 240.64 362.132 240.64 512C240.64 661.868 362.132 783.36 512 783.36Z" stroke="white" stroke-width="5"/>
<path d="M320 0V1024" stroke="white" stroke-width="5"/>
<path d="M512 0V1024" stroke="white" stroke-width="5"/>
<path d="M704 0V1024" stroke="white" stroke-width="5"/>
<path d="M0 704H1024" stroke="white" stroke-width="5"/>
<path d="M0 512H1024" stroke="white" stroke-width="5"/>
<path d="M0 320H1024" stroke="white" stroke-width="5"/>
<path d="M69.1196 69.1206L954.88 954.881" stroke="white" stroke-width="5"/>
<path d="M69.1196 954.881L954.88 69.1206" stroke="white" stroke-width="5"/>
</g>
<path d="M512 949.76C753.768 949.76 949.76 753.768 949.76 512C949.76 270.232 753.768 74.2402 512 74.2402C270.232 74.2402 74.2402 270.232 74.2402 512C74.2402 753.768 270.232 949.76 512 949.76Z" stroke="white" stroke-width="10"/>
<g filter="url(#filter0_d)">
<path d="M663.014 701.576H719.068V745.118H633.485L491.681 532.579H416.108V701.576H490.013V745.118H304V701.576H367.895V327.047L304 319.207V278C328.19 283.505 349.21 287.342 375.569 287.342C415.274 287.342 455.813 278 495.518 278C572.593 278 644.162 313.034 644.162 398.617C644.162 464.847 604.457 506.888 542.898 524.739L663.014 701.576ZM416.108 490.539L456.648 491.373C555.577 492.874 593.613 454.838 593.613 404.122C593.613 344.898 550.739 321.542 496.353 321.542C470.661 321.542 444.136 323.878 416.108 327.047V490.539Z" fill="white"/>
</g>
<path d="M582.117 250.965V269H571.57V217.812H591.539C595.383 217.812 598.758 218.516 601.664 219.922C604.594 221.328 606.844 223.332 608.414 225.934C609.984 228.512 610.77 231.453 610.77 234.758C610.77 239.773 609.047 243.734 605.602 246.641C602.18 249.523 597.434 250.965 591.363 250.965H582.117ZM582.117 242.422H591.539C594.328 242.422 596.449 241.766 597.902 240.453C599.379 239.141 600.117 237.266 600.117 234.828C600.117 232.32 599.379 230.293 597.902 228.746C596.426 227.199 594.387 226.402 591.785 226.355H582.117V242.422ZM638.754 240.488C637.371 240.301 636.152 240.207 635.098 240.207C631.254 240.207 628.734 241.508 627.539 244.109V269H617.379V230.961H626.977L627.258 235.496C629.297 232.004 632.121 230.258 635.73 230.258C636.855 230.258 637.91 230.41 638.895 230.715L638.754 240.488ZM660.48 269.703C654.902 269.703 650.355 267.992 646.84 264.57C643.348 261.148 641.602 256.59 641.602 250.895V249.91C641.602 246.09 642.34 242.68 643.816 239.68C645.293 236.656 647.379 234.336 650.074 232.719C652.793 231.078 655.887 230.258 659.355 230.258C664.559 230.258 668.648 231.898 671.625 235.18C674.625 238.461 676.125 243.113 676.125 249.137V253.285H651.902C652.23 255.77 653.215 257.762 654.855 259.262C656.52 260.762 658.617 261.512 661.148 261.512C665.062 261.512 668.121 260.094 670.324 257.258L675.316 262.848C673.793 265.004 671.73 266.691 669.129 267.91C666.527 269.105 663.645 269.703 660.48 269.703ZM659.32 238.484C657.305 238.484 655.664 239.164 654.398 240.523C653.156 241.883 652.359 243.828 652.008 246.359H666.141V245.551C666.094 243.301 665.484 241.566 664.312 240.348C663.141 239.105 661.477 238.484 659.32 238.484ZM695.672 256.59L702.738 230.961H713.355L700.523 269H690.82L677.988 230.961H688.605L695.672 256.59ZM728.578 269H718.383V230.961H728.578V269ZM717.785 221.117C717.785 219.594 718.289 218.34 719.297 217.355C720.328 216.371 721.723 215.879 723.48 215.879C725.215 215.879 726.598 216.371 727.629 217.355C728.66 218.34 729.176 219.594 729.176 221.117C729.176 222.664 728.648 223.93 727.594 224.914C726.562 225.898 725.191 226.391 723.48 226.391C721.77 226.391 720.387 225.898 719.332 224.914C718.301 223.93 717.785 222.664 717.785 221.117ZM754.488 269.703C748.91 269.703 744.363 267.992 740.848 264.57C737.355 261.148 735.609 256.59 735.609 250.895V249.91C735.609 246.09 736.348 242.68 737.824 239.68C739.301 236.656 741.387 234.336 744.082 232.719C746.801 231.078 749.895 230.258 753.363 230.258C758.566 230.258 762.656 231.898 765.633 235.18C768.633 238.461 770.133 243.113 770.133 249.137V253.285H745.91C746.238 255.77 747.223 257.762 748.863 259.262C750.527 260.762 752.625 261.512 755.156 261.512C759.07 261.512 762.129 260.094 764.332 257.258L769.324 262.848C767.801 265.004 765.738 266.691 763.137 267.91C760.535 269.105 757.652 269.703 754.488 269.703ZM753.328 238.484C751.312 238.484 749.672 239.164 748.406 240.523C747.164 241.883 746.367 243.828 746.016 246.359H760.148V245.551C760.102 243.301 759.492 241.566 758.32 240.348C757.148 239.105 755.484 238.484 753.328 238.484ZM809.016 255.184L814.008 230.961H823.816L814.113 269H805.605L798.398 245.059L791.191 269H782.719L773.016 230.961H782.824L787.781 255.148L794.742 230.961H802.09L809.016 255.184Z" fill="white"/>
<defs>
<filter id="filter0_d" x="304" y="278" width="435.068" height="487.118" filterUnits="userSpaceOnUse" color-interpolation-filters="sRGB">
<feFlood flood-opacity="0" result="BackgroundImageFix"/>
<feColorMatrix in="SourceAlpha" type="matrix" values="0 0 0 0 0 0 0 0 0 0 0 0 0 0 0 0 0 0 127 0"/>
<feOffset dx="15" dy="15"/>
<feGaussianBlur stdDeviation="2.5"/>
<feColorMatrix type="matrix" values="0 0 0 0 0 0 0 0 0 0 0 0 0 0 0 0 0 0 0.25 0"/>
<feBlend mode="normal" in2="BackgroundImageFix" result="effect1_dropShadow"/>
<feBlend mode="normal" in="SourceGraphic" in2="effect1_dropShadow" result="shape"/>
</filter>
<linearGradient id="paint0_linear" x1="512" y1="0" x2="512" y2="1024" gradientUnits="userSpaceOnUse">
<stop stop-color="#75AADB"/>
<stop offset="1" stop-color="#63A4E1"/>
</linearGradient>
</defs>
</svg>
