<svg width="1024" height="1024" viewBox="0 0 1024 1024" fill="none" xmlns="http://www.w3.org/2000/svg">
<mask id="mask0" mask-type="alpha" maskUnits="userSpaceOnUse" x="0" y="0" width="1024" height="1024">
<rect width="1024" height="1024" rx="512" fill="white"/>
</mask>
<g mask="url(#mask0)">
<g filter="url(#filter0_f)">
<g style="mix-blend-mode:overlay">
<path d="M655.679 -494.294C707.746 -544.39 792.162 -544.39 844.229 -494.294V-494.294C896.295 -444.199 896.295 -362.978 844.228 -312.883L-345.176 831.494C-397.242 881.589 -481.659 881.589 -533.725 831.494V831.494C-585.792 781.398 -585.792 700.178 -533.725 650.082L655.679 -494.294Z" fill="#E8524E"/>
<path d="M873.301 -341.108C909.222 -375.67 967.463 -375.67 1003.38 -341.108V-341.108C1039.31 -306.546 1039.31 -250.51 1003.38 -215.949L-244.485 984.68C-280.406 1019.24 -338.647 1019.24 -374.569 984.68V984.68C-410.491 950.118 -410.491 894.082 -374.569 859.52L873.301 -341.108Z" fill="#FB9424"/>
<path d="M1262.98 33.8215C1298.9 -0.740411 1357.14 -0.740356 1393.07 33.8215V33.8215C1428.99 68.3834 1428.99 124.419 1393.07 158.981L145.197 1359.61C109.275 1394.17 51.0343 1394.17 15.1126 1359.61V1359.61C-20.8092 1325.05 -20.8092 1269.01 15.1125 1234.45L1262.98 33.8215Z" fill="#00AEE3"/>
<path d="M1360.88 189.585C1414.47 138.02 1501.37 138.02 1554.96 189.585V189.585C1608.55 241.15 1608.55 324.754 1554.96 376.319L371.087 1515.37C317.493 1566.94 230.6 1566.94 177.006 1515.37V1515.37C123.412 1463.81 123.412 1380.2 177.006 1328.64L1360.88 189.585Z" fill="#A656A6"/>
<path d="M1133.09 -91.1551C1169.01 -125.717 1227.25 -125.717 1263.17 -91.1551V-91.1551C1299.1 -56.5932 1299.1 -0.557316 1263.17 34.0045L15.3037 1234.63C-20.6181 1269.19 -78.8587 1269.19 -114.781 1234.63V1234.63C-150.702 1200.07 -150.702 1144.04 -114.781 1109.47L1133.09 -91.1551Z" fill="#71C358"/>
<path d="M1003.19 -216.131C1039.12 -250.693 1097.36 -250.693 1133.28 -216.131V-216.131C1169.2 -181.569 1169.2 -125.533 1133.28 -90.9715L-114.591 1109.66C-150.513 1144.22 -208.753 1144.22 -244.675 1109.66V1109.66C-280.597 1075.1 -280.597 1019.06 -244.675 984.497L1003.19 -216.131Z" fill="#FEC334"/>
</g>
</g>
</g>
<g filter="url(#filter1_d)">
<path d="M663.014 701.576H719.068V745.118H633.485L491.681 532.579H416.108V701.576H490.013V745.118H304V701.576H367.895V327.047L304 319.207V278C328.19 283.505 349.21 287.342 375.569 287.342C415.274 287.342 455.813 278 495.518 278C572.593 278 644.162 313.034 644.162 398.617C644.162 464.847 604.457 506.888 542.898 524.739L663.014 701.576ZM416.108 490.539L456.648 491.373C555.577 492.874 593.613 454.838 593.613 404.122C593.613 344.898 550.739 321.542 496.353 321.542C470.661 321.542 444.136 323.878 416.108 327.047V490.539Z" fill="white"/>
</g>
<defs>
<filter id="filter0_f" x="-576.775" y="-535.866" width="2175.93" height="2093.91" filterUnits="userSpaceOnUse" color-interpolation-filters="sRGB">
<feFlood flood-opacity="0" result="BackgroundImageFix"/>
<feBlend mode="normal" in="SourceGraphic" in2="BackgroundImageFix" result="shape"/>
<feGaussianBlur stdDeviation="2" result="effect1_foregroundBlur"/>
</filter>
<filter id="filter1_d" x="304" y="278" width="435.068" height="487.118" filterUnits="userSpaceOnUse" color-interpolation-filters="sRGB">
<feFlood flood-opacity="0" result="BackgroundImageFix"/>
<feColorMatrix in="SourceAlpha" type="matrix" values="0 0 0 0 0 0 0 0 0 0 0 0 0 0 0 0 0 0 127 0"/>
<feOffset dx="15" dy="15"/>
<feGaussianBlur stdDeviation="2.5"/>
<feColorMatrix type="matrix" values="0 0 0 0 0 0 0 0 0 0 0 0 0 0 0 0 0 0 0.25 0"/>
<feBlend mode="normal" in2="BackgroundImageFix" result="effect1_dropShadow"/>
<feBlend mode="normal" in="SourceGraphic" in2="effect1_dropShadow" result="shape"/>
</filter>
</defs>
</svg>
