<svg width="1024" height="1024" viewBox="0 0 1024 1024" fill="none" xmlns="http://www.w3.org/2000/svg">
<mask id="mask0" mask-type="alpha" maskUnits="userSpaceOnUse" x="0" y="0" width="1024" height="1024">
<rect width="1024" height="1024" rx="512" fill="url(#paint0_linear)"/>
</mask>
<g mask="url(#mask0)">
<path d="M512 1237C912.406 1237 1237 912.406 1237 512C1237 111.594 912.406 -213 512 -213C111.594 -213 -213 111.594 -213 512C-213 912.406 111.594 1237 512 1237Z" fill="url(#paint1_radial)"/>
<path d="M938.763 120.031C938.763 294.49 748.531 436.02 514.13 436.02C279.729 436.02 89.4973 294.49 89.4973 120.031C89.4973 -54.429 279.495 -195.958 514.13 -195.958C748.765 -195.958 938.763 -54.429 938.763 120.031Z" fill="url(#paint2_linear)"/>
</g>
<g filter="url(#filter0_d)">
<path d="M663.014 701.576H719.068V745.118H633.485L491.681 532.579H416.108V701.576H490.013V745.118H304V701.576H367.895V327.047L304 319.207V278C328.19 283.505 349.21 287.342 375.569 287.342C415.274 287.342 455.813 278 495.518 278C572.593 278 644.162 313.034 644.162 398.617C644.162 464.847 604.457 506.888 542.898 524.739L663.014 701.576ZM416.108 490.539L456.648 491.373C555.577 492.874 593.613 454.838 593.613 404.122C593.613 344.898 550.739 321.542 496.353 321.542C470.661 321.542 444.136 323.878 416.108 327.047V490.539Z" fill="white"/>
</g>
<defs>
<filter id="filter0_d" x="304" y="278" width="435.068" height="487.118" filterUnits="userSpaceOnUse" color-interpolation-filters="sRGB">
<feFlood flood-opacity="0" result="BackgroundImageFix"/>
<feColorMatrix in="SourceAlpha" type="matrix" values="0 0 0 0 0 0 0 0 0 0 0 0 0 0 0 0 0 0 127 0"/>
<feOffset dx="15" dy="15"/>
<feGaussianBlur stdDeviation="2.5"/>
<feColorMatrix type="matrix" values="0 0 0 0 0 0 0 0 0 0 0 0 0 0 0 0 0 0 0.25 0"/>
<feBlend mode="normal" in2="BackgroundImageFix" result="effect1_dropShadow"/>
<feBlend mode="normal" in="SourceGraphic" in2="effect1_dropShadow" result="shape"/>
</filter>
<linearGradient id="paint0_linear" x1="512" y1="0" x2="512" y2="1024" gradientUnits="userSpaceOnUse">
<stop stop-color="#75AADB"/>
<stop offset="1" stop-color="#63A4E1"/>
</linearGradient>
<radialGradient id="paint1_radial" cx="0" cy="0" r="1" gradientUnits="userSpaceOnUse" gradientTransform="translate(533.288 830.39) scale(725.016)">
<stop stop-color="#77E8F9"/>
<stop offset="0.7013" stop-color="#2972CB"/>
<stop offset="1" stop-color="#073FB7"/>
</radialGradient>
<linearGradient id="paint2_linear" x1="513.275" y1="-187.255" x2="515.022" y2="436.802" gradientUnits="userSpaceOnUse">
<stop stop-color="white" stop-opacity="0.83"/>
<stop offset="1" stop-color="white" stop-opacity="0"/>
</linearGradient>
</defs>
</svg>
